<svg width="25" height="25" viewBox="0 0 25 25" fill="none" xmlns="http://www.w3.org/2000/svg">
<mask id="mask0_192_747" style="mask-type:alpha" maskUnits="userSpaceOnUse" x="0" y="0" width="25" height="25">
<rect x="0.870117" y="0.666992" width="24" height="24" fill="#D9D9D9"/>
</mask>
<g mask="url(#mask0_192_747)">
<path d="M6.72012 17.767C7.57012 17.117 8.52012 16.6045 9.57012 16.2295C10.6201 15.8545 11.7201 15.667 12.8701 15.667C14.0201 15.667 15.1201 15.8545 16.1701 16.2295C17.2201 16.6045 18.1701 17.117 19.0201 17.767C19.6035 17.0837 20.0576 16.3087 20.3826 15.442C20.7076 14.5753 20.8701 13.6503 20.8701 12.667C20.8701 10.4503 20.091 8.56283 18.5326 7.00449C16.9743 5.44616 15.0868 4.66699 12.8701 4.66699C10.6535 4.66699 8.76595 5.44616 7.20762 7.00449C5.64928 8.56283 4.87012 10.4503 4.87012 12.667C4.87012 13.6503 5.03262 14.5753 5.35762 15.442C5.68262 16.3087 6.13678 17.0837 6.72012 17.767ZM12.8701 13.667C11.8868 13.667 11.0576 13.3295 10.3826 12.6545C9.70762 11.9795 9.37012 11.1503 9.37012 10.167C9.37012 9.18366 9.70762 8.35449 10.3826 7.67949C11.0576 7.00449 11.8868 6.66699 12.8701 6.66699C13.8535 6.66699 14.6826 7.00449 15.3576 7.67949C16.0326 8.35449 16.3701 9.18366 16.3701 10.167C16.3701 11.1503 16.0326 11.9795 15.3576 12.6545C14.6826 13.3295 13.8535 13.667 12.8701 13.667ZM12.8701 22.667C11.4868 22.667 10.1868 22.4045 8.97012 21.8795C7.75345 21.3545 6.69512 20.642 5.79512 19.742C4.89512 18.842 4.18262 17.7837 3.65762 16.567C3.13262 15.3503 2.87012 14.0503 2.87012 12.667C2.87012 11.2837 3.13262 9.98366 3.65762 8.76699C4.18262 7.55033 4.89512 6.49199 5.79512 5.59199C6.69512 4.69199 7.75345 3.97949 8.97012 3.45449C10.1868 2.92949 11.4868 2.66699 12.8701 2.66699C14.2535 2.66699 15.5535 2.92949 16.7701 3.45449C17.9868 3.97949 19.0451 4.69199 19.9451 5.59199C20.8451 6.49199 21.5576 7.55033 22.0826 8.76699C22.6076 9.98366 22.8701 11.2837 22.8701 12.667C22.8701 14.0503 22.6076 15.3503 22.0826 16.567C21.5576 17.7837 20.8451 18.842 19.9451 19.742C19.0451 20.642 17.9868 21.3545 16.7701 21.8795C15.5535 22.4045 14.2535 22.667 12.8701 22.667ZM12.8701 20.667C13.7535 20.667 14.5868 20.5378 15.3701 20.2795C16.1535 20.0212 16.8701 19.6503 17.5201 19.167C16.8701 18.6837 16.1535 18.3128 15.3701 18.0545C14.5868 17.7962 13.7535 17.667 12.8701 17.667C11.9868 17.667 11.1535 17.7962 10.3701 18.0545C9.58678 18.3128 8.87012 18.6837 8.22012 19.167C8.87012 19.6503 9.58678 20.0212 10.3701 20.2795C11.1535 20.5378 11.9868 20.667 12.8701 20.667ZM12.8701 11.667C13.3035 11.667 13.6618 11.5253 13.9451 11.242C14.2285 10.9587 14.3701 10.6003 14.3701 10.167C14.3701 9.73366 14.2285 9.37533 13.9451 9.09199C13.6618 8.80866 13.3035 8.66699 12.8701 8.66699C12.4368 8.66699 12.0785 8.80866 11.7951 9.09199C11.5118 9.37533 11.3701 9.73366 11.3701 10.167C11.3701 10.6003 11.5118 10.9587 11.7951 11.242C12.0785 11.5253 12.4368 11.667 12.8701 11.667Z" fill="white"/>
</g>
</svg>
