<svg width="16" height="16" viewBox="0 0 16 16" fill="none" xmlns="http://www.w3.org/2000/svg">
<mask id="mask0_280_16238" style="mask-type:alpha" maskUnits="userSpaceOnUse" x="0" y="0" width="16" height="16">
<rect width="16" height="16" fill="#D9D9D9"/>
</mask>
<g mask="url(#mask0_280_16238)">
<path d="M5.66699 12.6667L7.33366 10H6.33366V8L4.66699 10.6667H5.66699V12.6667ZM4.00033 6.66667H8.00033V3.33333H4.00033V6.66667ZM4.00033 12.6667H8.00033V8H4.00033V12.6667ZM2.66699 14V3.33333C2.66699 2.96667 2.79755 2.65278 3.05866 2.39167C3.31977 2.13056 3.63366 2 4.00033 2H8.00033C8.36699 2 8.68088 2.13056 8.94199 2.39167C9.2031 2.65278 9.33366 2.96667 9.33366 3.33333V8H10.167C10.4892 8 10.7642 8.11389 10.992 8.34167C11.2198 8.56944 11.3337 8.84444 11.3337 9.16667V12.25C11.3337 12.4389 11.4114 12.6111 11.567 12.7667C11.7225 12.9222 11.8948 13 12.0837 13C12.2837 13 12.4587 12.9222 12.6087 12.7667C12.7587 12.6111 12.8337 12.4389 12.8337 12.25V6H12.667C12.4781 6 12.3198 5.93611 12.192 5.80833C12.0642 5.68056 12.0003 5.52222 12.0003 5.33333V4H12.3337V3H13.0003V4H13.667V3H14.3337V4H14.667V5.33333C14.667 5.52222 14.6031 5.68056 14.4753 5.80833C14.3475 5.93611 14.1892 6 14.0003 6H13.8337V12.25C13.8337 12.7167 13.6642 13.125 13.3253 13.475C12.9864 13.825 12.5725 14 12.0837 14C11.6059 14 11.1948 13.825 10.8503 13.475C10.5059 13.125 10.3337 12.7167 10.3337 12.25V9.16667C10.3337 9.11111 10.3198 9.06944 10.292 9.04167C10.2642 9.01389 10.2225 9 10.167 9H9.33366V14H2.66699Z" fill="#85C933"/>
</g>
</svg>
