<svg width="25" height="25" viewBox="0 0 25 25" fill="none" xmlns="http://www.w3.org/2000/svg">
<mask id="mask0_44_959" style="mask-type:alpha" maskUnits="userSpaceOnUse" x="0" y="0" width="25" height="25">
<rect y="0.128418" width="24.7769" height="24.7769" fill="#D9D9D9"/>
</mask>
<g mask="url(#mask0_44_959)">
<path d="M8.36204 14.9946H16.4145V13.9365C16.4145 13.3342 16.0274 12.8224 15.2531 12.4008C14.4788 11.9793 13.5239 11.7685 12.3883 11.7685C11.2527 11.7685 10.2977 11.9793 9.52346 12.4008C8.74918 12.8224 8.36204 13.3342 8.36204 13.9365V14.9946ZM12.3937 10.6587C12.9063 10.6587 13.3432 10.4762 13.7046 10.1113C14.0659 9.74632 14.2465 9.30757 14.2465 8.79499C14.2465 8.28242 14.0641 7.84547 13.6991 7.48414C13.3342 7.12282 12.8954 6.94215 12.3829 6.94215C11.8703 6.94215 11.4333 7.12462 11.072 7.48956C10.7107 7.85451 10.53 8.29326 10.53 8.80584C10.53 9.31841 10.7125 9.75536 11.0774 10.1167C11.4424 10.478 11.8811 10.6587 12.3937 10.6587ZM2.47754 22.4277V4.46447C2.47754 3.95344 2.65949 3.51598 3.0234 3.15207C3.38731 2.78816 3.82478 2.6062 4.3358 2.6062H20.4408C20.9518 2.6062 21.3892 2.78816 21.7532 3.15207C22.1171 3.51598 22.299 3.95344 22.299 4.46447V16.8529C22.299 17.3639 22.1171 17.8014 21.7532 18.1653C21.3892 18.5292 20.9518 18.7112 20.4408 18.7112H6.19407L2.47754 22.4277ZM5.41979 16.8529H20.4408V4.46447H4.3358V17.9369L5.41979 16.8529Z" fill="white"/>
</g>
</svg>
