<svg width="21" height="21" viewBox="0 0 21 21" fill="none" xmlns="http://www.w3.org/2000/svg">
<path d="M6.36204 12.9944H14.4145V11.9362C14.4145 11.334 14.0274 10.8221 13.2531 10.4006C12.4788 9.97901 11.5239 9.76823 10.3883 9.76823C9.25268 9.76823 8.29773 9.97901 7.52346 10.4006C6.74918 10.8221 6.36204 11.334 6.36204 11.9362V12.9944ZM10.3937 8.65843C10.9063 8.65843 11.3432 8.47596 11.7046 8.11102C12.0659 7.74608 12.2465 7.30732 12.2465 6.79475C12.2465 6.28218 12.0641 5.84523 11.6991 5.4839C11.3342 5.12257 10.8954 4.94191 10.3829 4.94191C9.87029 4.94191 9.43334 5.12438 9.07201 5.48932C8.71068 5.85426 8.53002 6.29302 8.53002 6.80559C8.53002 7.31816 8.71249 7.75511 9.07743 8.11644C9.44237 8.47777 9.88113 8.65843 10.3937 8.65843ZM0.477539 20.4274V2.46422C0.477539 1.9532 0.659494 1.51573 1.0234 1.15182C1.38731 0.787913 1.82478 0.605957 2.3358 0.605957H18.4408C18.9518 0.605957 19.3892 0.787913 19.7532 1.15182C20.1171 1.51573 20.299 1.9532 20.299 2.46422V14.8526C20.299 15.3637 20.1171 15.8011 19.7532 16.165C19.3892 16.529 18.9518 16.7109 18.4408 16.7109H4.19407L0.477539 20.4274Z" fill="#8FCB48"/>
</svg>
