<svg width="21" height="21" viewBox="0 0 21 21" fill="none" xmlns="http://www.w3.org/2000/svg">
<mask id="mask0_192_723" style="mask-type:alpha" maskUnits="userSpaceOnUse" x="0" y="0" width="21" height="21">
<rect x="0.223145" y="0.765137" width="20" height="20" fill="#D9D9D9"/>
</mask>
<g mask="url(#mask0_192_723)">
<path d="M4.72314 17.7651C4.32037 17.7651 3.96967 17.6158 3.67106 17.3172C3.37245 17.0186 3.22314 16.6679 3.22314 16.2651V5.26514C3.22314 4.85264 3.37245 4.49951 3.67106 4.20576C3.96967 3.91201 4.32037 3.76514 4.72314 3.76514H15.7231C16.1356 3.76514 16.4888 3.91201 16.7825 4.20576C17.0763 4.49951 17.2231 4.85264 17.2231 5.26514V16.2651C17.2231 16.6679 17.0763 17.0186 16.7825 17.3172C16.4888 17.6158 16.1356 17.7651 15.7231 17.7651H4.72314ZM4.72314 5.26514V16.2651H15.7231V5.26514H14.2231V11.7651L12.2231 10.7651L10.2231 11.7651V5.26514H4.72314Z" fill="white"/>
</g>
</svg>
