<svg width="15" height="15" viewBox="0 0 15 15" fill="none" xmlns="http://www.w3.org/2000/svg">
<g filter="url(#filter0_d_201_213)">
<mask id="mask0_201_213" style="mask-type:luminance" maskUnits="userSpaceOnUse" x="0" y="0" width="15" height="15">
<path d="M15 0H0V15H15V0Z" fill="white"/>
</mask>
<g mask="url(#mask0_201_213)">
<path d="M0 7.50001C0 8.375 0.15625 9.21875 0.421875 9.99999H14.5625C14.8437 9.21875 15 8.375 15 7.50001C15 6.62499 14.8437 5.78124 14.5781 5H0.421875C0.15625 5.78124 0 6.62499 0 7.50001Z" fill="white"/>
<path d="M0.421875 4.99999H14.5625C13.5469 2.09375 10.7656 0 7.5 0C4.23436 0 1.45312 2.09375 0.421875 4.99999Z" fill="#A91C27"/>
<path d="M14.5781 10H0.421875C1.45312 12.9062 4.23436 15 7.5 15C10.7656 15 13.5469 12.9062 14.5781 10Z" fill="#204486"/>
</g>
</g>
<defs>
<filter id="filter0_d_201_213" x="-4" y="0" width="23" height="23" filterUnits="userSpaceOnUse" color-interpolation-filters="sRGB">
<feFlood flood-opacity="0" result="BackgroundImageFix"/>
<feColorMatrix in="SourceAlpha" type="matrix" values="0 0 0 0 0 0 0 0 0 0 0 0 0 0 0 0 0 0 127 0" result="hardAlpha"/>
<feOffset dy="4"/>
<feGaussianBlur stdDeviation="2"/>
<feComposite in2="hardAlpha" operator="out"/>
<feColorMatrix type="matrix" values="0 0 0 0 0 0 0 0 0 0 0 0 0 0 0 0 0 0 0.25 0"/>
<feBlend mode="normal" in2="BackgroundImageFix" result="effect1_dropShadow_201_213"/>
<feBlend mode="normal" in="SourceGraphic" in2="effect1_dropShadow_201_213" result="shape"/>
</filter>
</defs>
</svg>
