<svg width="20" height="21" viewBox="0 0 20 21" fill="none" xmlns="http://www.w3.org/2000/svg">
<mask id="mask0_192_689" style="mask-type:alpha" maskUnits="userSpaceOnUse" x="0" y="0" width="20" height="21">
<rect y="0.666504" width="20" height="20" fill="#D9D9D9"/>
</mask>
<g mask="url(#mask0_192_689)">
<path d="M7 12.6665H8.5V10.6665H11V12.4165L13.5 9.9165L11 7.4165V9.1665H7.745C7.54 9.1665 7.36458 9.23838 7.21875 9.38213C7.07292 9.52588 7 9.704 7 9.9165V12.6665ZM10 18.6665C9.81056 18.6665 9.62431 18.6318 9.44125 18.5623C9.25819 18.4929 9.09028 18.3818 8.9375 18.229L2.4375 11.729C2.28472 11.5762 2.17361 11.4083 2.10417 11.2253C2.03472 11.0422 2 10.8559 2 10.6665C2 10.4771 2.03472 10.2908 2.10417 10.1078C2.17361 9.9247 2.28472 9.75678 2.4375 9.604L8.9375 3.104C9.09028 2.95123 9.25819 2.84012 9.44125 2.77067C9.62431 2.70123 9.81056 2.6665 10 2.6665C10.1894 2.6665 10.3757 2.70123 10.5588 2.77067C10.7418 2.84012 10.9097 2.95123 11.0625 3.104L17.5625 9.604C17.7153 9.75678 17.8264 9.9247 17.8958 10.1078C17.9653 10.2908 18 10.4771 18 10.6665C18 10.8559 17.9653 11.0422 17.8958 11.2253C17.8264 11.4083 17.7153 11.5762 17.5625 11.729L11.0625 18.229C10.9097 18.3818 10.7418 18.4929 10.5588 18.5623C10.3757 18.6318 10.1894 18.6665 10 18.6665ZM10 17.1665L16.5 10.6665L10 4.1665L3.5 10.6665L10 17.1665Z" fill="white"/>
</g>
</svg>
