<svg width="21" height="21" viewBox="0 0 21 21" fill="none" xmlns="http://www.w3.org/2000/svg">
<mask id="mask0_192_714" style="mask-type:alpha" maskUnits="userSpaceOnUse" x="0" y="0" width="21" height="21">
<rect x="0.223145" y="0.79541" width="20" height="20" fill="#D9D9D9"/>
</mask>
<g mask="url(#mask0_192_714)">
<path d="M6.97314 12.7954H13.4731V11.9412C13.4731 11.4551 13.1606 11.0419 12.5356 10.7017C11.9106 10.3614 11.1398 10.1912 10.2231 10.1912C9.30648 10.1912 8.53564 10.3614 7.91064 10.7017C7.28564 11.0419 6.97314 11.4551 6.97314 11.9412V12.7954ZM10.2275 9.29541C10.6413 9.29541 10.994 9.14812 11.2856 8.85353C11.5773 8.55895 11.7231 8.20478 11.7231 7.79103C11.7231 7.37728 11.5759 7.02458 11.2813 6.73291C10.9867 6.44124 10.6325 6.29541 10.2188 6.29541C9.80502 6.29541 9.45231 6.4427 9.16064 6.73729C8.86898 7.03187 8.72314 7.38604 8.72314 7.79979C8.72314 8.21354 8.87044 8.56624 9.16502 8.85791C9.4596 9.14958 9.81377 9.29541 10.2275 9.29541ZM2.22314 18.7954V4.29541C2.22314 3.88291 2.37002 3.52979 2.66377 3.23604C2.95752 2.94229 3.31064 2.79541 3.72314 2.79541H16.7231C17.1356 2.79541 17.4888 2.94229 17.7825 3.23604C18.0763 3.52979 18.2231 3.88291 18.2231 4.29541V14.2954C18.2231 14.7079 18.0763 15.061 17.7825 15.3548C17.4888 15.6485 17.1356 15.7954 16.7231 15.7954H5.22314L2.22314 18.7954ZM4.59814 14.2954H16.7231V4.29541H3.72314V15.1704L4.59814 14.2954Z" fill="white"/>
</g>
</svg>
