<svg width="22" height="22" viewBox="0 0 22 22" fill="none" xmlns="http://www.w3.org/2000/svg">
<circle cx="11.1165" cy="10.7181" r="10.7181" fill="#85C933"/>
<mask id="mask0_246_722" style="mask-type:alpha" maskUnits="userSpaceOnUse" x="3" y="3" width="16" height="16">
<rect x="3.69629" y="3.29767" width="14.8404" height="14.8404" fill="#D9D9D9"/>
</mask>
<g mask="url(#mask0_246_722)">
<path d="M8.41181 7.25492L10.1432 5.0134C10.2669 4.84851 10.4137 4.72741 10.5838 4.65012C10.7538 4.57283 10.9316 4.53418 11.1171 4.53418C11.3026 4.53418 11.4804 4.57283 11.6504 4.65012C11.8205 4.72741 11.9673 4.84851 12.091 5.0134L13.8224 7.25492L16.4503 8.13606C16.7183 8.21851 16.9296 8.37052 17.0842 8.5921C17.2387 8.81367 17.316 9.05843 17.316 9.32639C17.316 9.45006 17.298 9.57373 17.2619 9.6974C17.2259 9.82107 17.1666 9.93958 17.0842 10.0529L15.3837 12.4645L15.4455 14.9997C15.4558 15.3604 15.3373 15.6645 15.09 15.9118C14.8426 16.1591 14.5541 16.2828 14.2243 16.2828C14.2037 16.2828 14.0903 16.2674 13.8842 16.2364L11.1171 15.4635L8.34997 16.2364C8.29844 16.2571 8.24176 16.2699 8.17993 16.2751C8.11809 16.2802 8.06141 16.2828 8.00988 16.2828C7.6801 16.2828 7.39153 16.1591 7.14419 15.9118C6.89685 15.6645 6.77834 15.3604 6.78864 14.9997L6.85048 12.4491L5.16547 10.0529C5.08303 9.93958 5.02377 9.82107 4.9877 9.6974C4.95163 9.57373 4.93359 9.45006 4.93359 9.32639C4.93359 9.06874 5.00831 8.82913 5.15775 8.60756C5.30718 8.38598 5.51587 8.22882 5.78382 8.13606L8.41181 7.25492Z" fill="white"/>
</g>
</svg>
