<svg width="17" height="17" viewBox="0 0 17 17" fill="none" xmlns="http://www.w3.org/2000/svg">
<path d="M8.99917 15.167C9.72194 15.167 10.4167 15.0524 11.0833 14.8232C11.75 14.5941 12.375 14.2573 12.9583 13.8128C12.3611 13.4378 11.7292 13.1531 11.0625 12.9587C10.3958 12.7642 9.70833 12.667 9 12.667C8.29167 12.667 7.60069 12.7607 6.92708 12.9482C6.25347 13.1357 5.625 13.4239 5.04167 13.8128C5.625 14.2573 6.24972 14.5941 6.91583 14.8232C7.58194 15.0524 8.27639 15.167 8.99917 15.167ZM11.3958 8.95866L10.3125 7.87533C10.3819 7.76421 10.4306 7.64845 10.4583 7.52803C10.4861 7.40776 10.5 7.28741 10.5 7.16699C10.5 6.75033 10.3542 6.39616 10.0625 6.10449C9.77083 5.81283 9.41667 5.66699 9 5.66699C8.87958 5.66699 8.75924 5.68088 8.63896 5.70866C8.51854 5.73644 8.40278 5.78505 8.29167 5.85449L7.20833 4.77116C7.47222 4.57671 7.75694 4.42741 8.0625 4.32324C8.36806 4.21908 8.68056 4.16699 9 4.16699C9.82861 4.16699 10.5358 4.45984 11.1215 5.04553C11.7072 5.63123 12 6.33838 12 7.16699C12 7.48644 11.9479 7.79894 11.8438 8.10449C11.7396 8.41005 11.5903 8.69477 11.3958 8.95866ZM15.6042 13.167L14.5208 12.0837C14.8403 11.5698 15.0833 11.0235 15.25 10.4449C15.4167 9.86644 15.5 9.2738 15.5 8.66699C15.5 6.86144 14.8681 5.32671 13.6042 4.06283C12.3403 2.79894 10.8056 2.16699 9 2.16699C8.39319 2.16699 7.80056 2.25033 7.22208 2.41699C6.64347 2.58366 6.09722 2.82671 5.58333 3.14616L4.5 2.06283C5.16667 1.60449 5.88208 1.25727 6.64625 1.02116C7.41042 0.785048 8.195 0.666992 9 0.666992C10.1111 0.666992 11.1493 0.875326 12.1146 1.29199C13.0799 1.70866 13.9271 2.28158 14.6562 3.01074C15.3854 3.73991 15.9583 4.58713 16.375 5.55241C16.7917 6.51769 17 7.55588 17 8.66699C17 9.47199 16.8819 10.2566 16.6458 11.0207C16.4097 11.7849 16.0625 12.5003 15.6042 13.167ZM9 16.667C7.8975 16.667 6.86146 16.4587 5.89188 16.042C4.92229 15.6253 4.07292 15.0524 3.34375 14.3232C2.61458 13.5941 2.04167 12.7447 1.625 11.7751C1.20833 10.8055 1 9.76949 1 8.66699C1 7.86671 1.11806 7.08678 1.35417 6.3272C1.59028 5.56762 1.93056 4.85449 2.375 4.18783L0.875 2.66699L1.9375 1.60449L16.0625 15.7295L15 16.792L3.45833 5.27116C3.13889 5.78505 2.89931 6.32671 2.73958 6.89616C2.57986 7.4656 2.5 8.05588 2.5 8.66699C2.5 9.41699 2.61806 10.1392 2.85417 10.8337C3.09028 11.5281 3.45139 12.16 3.9375 12.7295C4.6875 12.2017 5.48896 11.8094 6.34188 11.5524C7.19493 11.2955 8.07861 11.167 8.99292 11.167C9.51153 11.167 10.0208 11.2121 10.5208 11.3024C11.0208 11.3927 11.5139 11.5212 12 11.6878L14.6458 14.3337C13.8958 15.0837 13.0341 15.66 12.0606 16.0628C11.087 16.4656 10.0668 16.667 9 16.667Z" fill="white"/>
</svg>
