<svg width="22" height="22" viewBox="0 0 22 22" fill="none" xmlns="http://www.w3.org/2000/svg">
<path d="M19.2492 22H9.16215C8.4332 21.9978 7.73474 21.7074 7.21929 21.1921C6.70385 20.6769 6.41331 19.9787 6.41113 19.25V13.75H14.6642C15.3938 13.75 16.0935 13.4603 16.6094 12.9445C17.1254 12.4288 17.4152 11.7293 17.4152 11C17.4152 10.2707 17.1254 9.57118 16.6094 9.05546C16.0935 8.53973 15.3938 8.25 14.6642 8.25H6.41113V2.75C6.41331 2.02132 6.70385 1.32311 7.21929 0.807859C7.73474 0.292606 8.4332 0.00217628 9.16215 0H19.2492C19.9782 0.00217628 20.6766 0.292606 21.1921 0.807859C21.7075 1.32311 21.998 2.02132 22.0002 2.75V19.25C21.998 19.9787 21.7075 20.6769 21.1921 21.1921C20.6766 21.7074 19.9782 21.9978 19.2492 22V22Z" fill="white"/>
<path d="M3.1189 10.0833H14.664C14.9072 10.0833 15.1404 10.1799 15.3124 10.3518C15.4844 10.5237 15.581 10.7569 15.581 11C15.581 11.2431 15.4844 11.4763 15.3124 11.6482C15.1404 11.8201 14.9072 11.9167 14.664 11.9167H3.1189L4.311 13.0992C4.48368 13.2718 4.58069 13.5059 4.58069 13.75C4.58069 13.9941 4.48368 14.2282 4.311 14.4008C4.13833 14.5734 3.90413 14.6704 3.65993 14.6704C3.41573 14.6704 3.18153 14.5734 3.00886 14.4008L0.25784 11.6508C0.0922047 11.4746 0 11.2418 0 11C0 10.7582 0.0922047 10.5254 0.25784 10.3492L3.00886 7.59916C3.18445 7.43214 3.41755 7.339 3.65993 7.339C3.90231 7.339 4.13541 7.43214 4.311 7.59916C4.48281 7.77223 4.57921 8.00617 4.57921 8.24999C4.57921 8.49381 4.48281 8.72775 4.311 8.90083L3.1189 10.0833Z" fill="white"/>
</svg>
