<svg width="32" height="26" viewBox="0 0 32 26" fill="none" xmlns="http://www.w3.org/2000/svg">
<path d="M1.38353 1.47413C1.24635 1.47351 1.11458 1.53681 1.0172 1.65009C0.919823 1.76338 0.86481 1.91737 0.864262 2.07821V22.1564C0.864002 22.2364 0.877255 22.3157 0.903259 22.3897C0.929262 22.4637 0.967501 22.531 1.01577 22.5876C1.06404 22.6442 1.12139 22.689 1.1845 22.7195C1.24762 22.75 1.31526 22.7655 1.38353 22.7652H4.17683C4.4192 24.2993 5.55998 25.4741 6.9277 25.4741C8.29542 25.4741 9.43621 24.2993 9.67857 22.7652H20.3679H22.7329C23.0688 24.1478 24.1473 25.1697 25.4231 25.1697C26.6989 25.1697 27.7774 24.1478 28.1134 22.7652H30.349C30.4862 22.7646 30.6176 22.7001 30.7142 22.5859C30.8108 22.4717 30.8648 22.3172 30.8643 22.1564V14.2014C30.8642 14.123 30.8512 14.0454 30.8259 13.9728L28.4286 7.09687C28.3894 6.98529 28.3227 6.88997 28.237 6.82308C28.1514 6.75619 28.0506 6.72079 27.9477 6.72139H20.8872V2.07821C20.8866 1.91737 20.8316 1.76337 20.7342 1.65009C20.6368 1.5368 20.5051 1.47351 20.3679 1.47413H1.38353ZM1.89975 2.6823H19.8527V21.5523H9.67959C9.43846 20.0164 8.29651 18.8398 6.9277 18.8398C5.55889 18.8398 4.41694 20.0164 4.17582 21.5523H1.89975V2.6823ZM20.8872 7.9343H27.6002L29.5772 13.5973H20.8872V7.9343ZM20.8872 14.8055H29.8298V21.5523H28.2104C28.0814 19.8704 26.881 18.5354 25.4231 18.5354C23.9652 18.5354 22.7648 19.8704 22.6359 21.5523H20.8872V14.8055ZM25.4231 19.7483C26.4005 19.7483 27.187 20.6786 27.187 21.852C27.187 23.0253 26.4005 23.9568 25.4231 23.9568C24.4457 23.9568 23.6592 23.0253 23.6592 21.852C23.6592 20.6786 24.4457 19.7483 25.4231 19.7483ZM6.9277 20.0527C7.90511 20.0527 8.69561 20.9831 8.69561 22.1564C8.69561 23.3297 7.90511 24.2612 6.9277 24.2612C5.95029 24.2612 5.16383 23.3297 5.16383 22.1564C5.16383 20.9831 5.95029 20.0527 6.9277 20.0527Z" fill="#337A34" stroke="#337A34"/>
<path d="M11.9083 6.15912C11.6154 5.86623 11.1405 5.86623 10.8476 6.15912L6.07463 10.9321C5.78174 11.225 5.78174 11.6999 6.07463 11.9928C6.36752 12.2856 6.8424 12.2856 7.13529 11.9928L11.3779 7.75011L15.6206 11.9928C15.9135 12.2856 16.3883 12.2856 16.6812 11.9928C16.9741 11.6999 16.9741 11.225 16.6812 10.9321L11.9083 6.15912ZM12.1279 16.6456L12.1279 6.68945L10.6279 6.68945L10.6279 16.6456L12.1279 16.6456Z" fill="#337A34"/>
</svg>
