<svg width="28" height="28" viewBox="0 0 28 28" fill="none" xmlns="http://www.w3.org/2000/svg">
<mask id="mask0_266_2159" style="mask-type:alpha" maskUnits="userSpaceOnUse" x="0" y="0" width="28" height="28">
<rect x="28" width="28" height="28" transform="rotate(90 28 0)" fill="#D9D9D9"/>
</mask>
<g mask="url(#mask0_266_2159)">
<path d="M3.5 5.69048C3.5 5.06447 3.72847 4.52856 4.18542 4.08276C4.64236 3.63696 5.19167 3.41406 5.83333 3.41406L10.5 3.41406L10.5 5.69048L5.83333 5.69048L5.83333 21.6254L22.1667 21.6254L22.1667 5.69048L17.5 5.69048L17.5 3.41406L22.1667 3.41406C22.8083 3.41406 23.3576 3.63696 23.8146 4.08276C24.2715 4.52856 24.5 5.06447 24.5 5.69048L24.5 21.6254C24.5 22.2514 24.2715 22.7873 23.8146 23.2331C23.3576 23.6789 22.8083 23.9018 22.1667 23.9018L5.83333 23.9018C5.19167 23.9018 4.64236 23.6789 4.18542 23.2331C3.72847 22.7873 3.5 22.2514 3.5 21.6254L3.5 5.69048ZM8.16667 11.9506L9.85833 10.3571L12.8333 13.2596L12.8333 3.41406L15.1667 3.41406L15.1667 13.2596L18.1417 10.3571L19.8333 11.9506L14 17.6417L8.16667 11.9506Z" fill="#FDFDFD"/>
</g>
</svg>
