<svg width="31" height="31" viewBox="0 0 31 31" fill="none" xmlns="http://www.w3.org/2000/svg">
<path d="M15.752 0.953125C7.50195 0.953125 0.751953 7.70312 0.751953 15.9531C0.751953 24.2031 7.50195 30.9531 15.752 30.9531C24.002 30.9531 30.752 24.2031 30.752 15.9531C30.752 7.70312 24.002 0.953125 15.752 0.953125ZM15.752 28.4531C8.87695 28.4531 3.25195 22.8281 3.25195 15.9531C3.25195 9.07812 8.87695 3.45312 15.752 3.45312C22.627 3.45312 28.252 9.07812 28.252 15.9531C28.252 22.8281 22.627 28.4531 15.752 28.4531Z" fill="#337A34"/>
<path d="M8.75195 13.5781C7.37695 13.5781 6.37695 14.7031 6.37695 15.9531C6.37695 17.3281 7.50195 18.3281 8.75195 18.3281C10.127 18.3281 11.127 17.2031 11.127 15.9531C11.127 14.5781 10.127 13.5781 8.75195 13.5781Z" fill="#337A34"/>
<path d="M15.752 13.5781C14.377 13.5781 13.377 14.7031 13.377 15.9531C13.377 17.3281 14.502 18.3281 15.752 18.3281C17.127 18.3281 18.127 17.2031 18.127 15.9531C18.127 14.5781 17.127 13.5781 15.752 13.5781Z" fill="#337A34"/>
<path d="M22.752 13.5781C21.377 13.5781 20.377 14.7031 20.377 15.9531C20.377 17.3281 21.502 18.3281 22.752 18.3281C24.127 18.3281 25.127 17.2031 25.127 15.9531C25.127 14.5781 24.002 13.5781 22.752 13.5781Z" fill="#337A34"/>
</svg>
