<svg width="22" height="23" viewBox="0 0 22 23" fill="none" xmlns="http://www.w3.org/2000/svg">
<mask id="mask0_192_682" style="mask-type:alpha" maskUnits="userSpaceOnUse" x="0" y="0" width="22" height="23">
<rect y="0.666992" width="22" height="22" fill="#D9D9D9"/>
</mask>
<g mask="url(#mask0_192_682)">
<path d="M6.41683 19.917V14.3482C5.07239 14.1344 3.97238 13.5118 3.11683 12.4805C2.26127 11.4493 1.8335 10.2614 1.8335 8.91699C1.8335 7.38921 2.36822 6.0906 3.43766 5.02116C4.50711 3.95171 5.80572 3.41699 7.3335 3.41699C8.67794 3.41699 9.86579 3.84477 10.897 4.70033C11.9283 5.55588 12.5509 6.65588 12.7647 8.00033H16.6606L15.2168 6.53366L16.5002 5.25033L20.1668 8.91699L16.5002 12.5837L15.1939 11.3003L16.6606 9.83366H12.7418C12.2988 9.83366 11.9092 9.68852 11.5731 9.39824C11.237 9.10796 11.0307 8.7413 10.9543 8.29824C10.8016 7.41213 10.3852 6.68262 9.70537 6.1097C9.02551 5.53678 8.23489 5.25033 7.3335 5.25033C6.32516 5.25033 5.46197 5.60935 4.74391 6.32741C4.02586 7.04546 3.66683 7.90866 3.66683 8.91699C3.66683 9.81838 3.95329 10.609 4.5262 11.2889C5.09912 11.9687 5.82864 12.385 6.71475 12.5378C7.1578 12.6142 7.52447 12.8205 7.81475 13.1566C8.10502 13.4927 8.25016 13.8823 8.25016 14.3253V19.917H6.41683Z" fill="white"/>
</g>
</svg>
