<svg width="20" height="21" viewBox="0 0 20 21" fill="none" xmlns="http://www.w3.org/2000/svg">
<mask id="mask0_192_706" style="mask-type:alpha" maskUnits="userSpaceOnUse" x="0" y="0" width="20" height="21">
<rect y="0.666992" width="20" height="20" fill="#D9D9D9"/>
</mask>
<g mask="url(#mask0_192_706)">
<path d="M7.5 8.16699V6.66699H14.5V8.16699H7.5ZM7.5 10.667V9.16699H14.5V10.667H7.5ZM10.5 18.667H5C4.44444 18.667 3.97222 18.4725 3.58333 18.0837C3.19444 17.6948 3 17.2225 3 16.667V13.667H5V2.66699H17V10.1878C16.7222 10.2017 16.4583 10.2503 16.2083 10.3337C15.9583 10.417 15.7222 10.5489 15.5 10.7295V4.16699H6.5V13.667H12.5208L11.0208 15.167H4.5V16.667C4.5 16.8087 4.54792 16.9274 4.64375 17.0232C4.73958 17.1191 4.85833 17.167 5 17.167H10.5V18.667ZM12 18.667V16.3128L16.375 11.9587C16.4758 11.8557 16.5878 11.7814 16.711 11.7355C16.8342 11.6898 16.9567 11.667 17.0783 11.667C17.211 11.667 17.3381 11.6913 17.4598 11.7399C17.5815 11.7885 17.6921 11.8614 17.7917 11.9587L18.7083 12.8962C18.7999 12.997 18.8713 13.109 18.9227 13.2322C18.9742 13.3554 19 13.4778 19 13.5995C19 13.7212 18.9772 13.8456 18.9315 13.9728C18.8856 14.0999 18.8113 14.2132 18.7083 14.3128L14.3542 18.667H12ZM13 17.667H13.9375L16.3333 15.2712L15.875 14.792L15.4167 14.3337L13 16.7295V17.667ZM15.875 14.792L15.4167 14.3337L16.3333 15.2712L15.875 14.792Z" fill="white"/>
</g>
</svg>
