<svg width="31" height="31" viewBox="0 0 31 31" fill="none" xmlns="http://www.w3.org/2000/svg">
<path d="M10.5925 21.8631C9.21699 22.6529 5.61058 24.2655 7.80712 26.2834C8.88012 27.2691 10.0752 27.9741 11.5776 27.9741H20.1509C21.6534 27.9741 22.8484 27.2691 23.9214 26.2834C26.1179 24.2655 22.5115 22.6529 21.136 21.8631C17.9106 20.0111 13.8179 20.0111 10.5925 21.8631Z" stroke="#337A34" stroke-width="2" stroke-linecap="round" stroke-linejoin="round"/>
<path d="M20.2393 12.9741C20.2393 15.3904 18.2805 17.3491 15.8643 17.3491C13.448 17.3491 11.4893 15.3904 11.4893 12.9741C11.4893 10.5579 13.448 8.59912 15.8643 8.59912C18.2805 8.59912 20.2393 10.5579 20.2393 12.9741Z" stroke="#337A34" stroke-width="2"/>
<path d="M4.43176 20.4741C3.74552 18.9321 3.36426 17.2254 3.36426 15.4299C3.36426 8.55073 8.9607 2.97412 15.8643 2.97412C22.7678 2.97412 28.3643 8.55073 28.3643 15.4299C28.3643 17.2254 27.983 18.9321 27.2968 20.4741" stroke="#337A34" stroke-width="2" stroke-linecap="round"/>
</svg>
