<svg width="20" height="21" viewBox="0 0 20 21" fill="none" xmlns="http://www.w3.org/2000/svg">
<mask id="mask0_192_732" style="mask-type:alpha" maskUnits="userSpaceOnUse" x="0" y="0" width="20" height="21">
<rect y="0.666992" width="20" height="20" fill="#D9D9D9"/>
</mask>
<g mask="url(#mask0_192_732)">
<path d="M15 17.667H5.5V7.66699L11.5 1.66699L12.1667 2.12533C12.4028 2.29199 12.5833 2.5038 12.7083 2.76074C12.8333 3.01769 12.8681 3.28505 12.8125 3.56283L12.7917 3.66699L12 7.66699H17.5C17.9167 7.66699 18.2708 7.81283 18.5625 8.10449C18.8542 8.39616 19 8.75033 19 9.16699V10.3545C19 10.4656 18.9896 10.5663 18.9688 10.6566C18.9479 10.7469 18.9167 10.8406 18.875 10.9378L16.3944 16.7545C16.2703 17.0295 16.0833 17.2503 15.8333 17.417C15.5833 17.5837 15.3056 17.667 15 17.667ZM7 16.167H15L17.5 10.3545V9.16699H10.1667L11.1875 4.10449L7 8.29199V16.167ZM5.5 7.66699V9.16699H2.5V16.167H5.5V17.667H1V7.66699H5.5Z" fill="white"/>
</g>
</svg>
