<svg width="25" height="25" viewBox="0 0 25 25" fill="none" xmlns="http://www.w3.org/2000/svg">
<path d="M8.15039 15.3999H10.3254V12.4999H13.9504V15.0374L17.5754 11.4124L13.9504 7.7874V10.3249H9.23789C8.93581 10.3249 8.67904 10.4306 8.46758 10.6421C8.25612 10.8535 8.15039 11.1103 8.15039 11.4124V15.3999ZM12.5004 24.0999C12.2184 24.0999 11.9466 24.0496 11.6848 23.9489C11.423 23.8482 11.1813 23.6871 10.9598 23.4655L1.53477 14.0405C1.31324 13.819 1.15213 13.5773 1.05143 13.3155C0.950738 13.0537 0.900391 12.7818 0.900391 12.4999C0.900391 12.218 0.950738 11.9461 1.05143 11.6843C1.15213 11.4225 1.31324 11.1808 1.53477 10.9593L10.9598 1.53428C11.1813 1.31275 11.423 1.15164 11.6848 1.05094C11.9466 0.95025 12.2184 0.899902 12.5004 0.899902C12.7823 0.899902 13.0542 0.95025 13.316 1.05094C13.5778 1.15164 13.8195 1.31275 14.041 1.53428L23.466 10.9593C23.6875 11.1808 23.8487 11.4225 23.9494 11.6843C24.05 11.9461 24.1004 12.218 24.1004 12.4999C24.1004 12.7818 24.05 13.0537 23.9494 13.3155C23.8487 13.5773 23.6875 13.819 23.466 14.0405L14.041 23.4655C13.8195 23.6871 13.5778 23.8482 13.316 23.9489C13.0542 24.0496 12.7823 24.0999 12.5004 24.0999Z" fill="#8FCB48"/>
</svg>
