<svg width="29" height="29" viewBox="0 0 29 29" fill="none" xmlns="http://www.w3.org/2000/svg">
<mask id="mask0_44_962" style="mask-type:alpha" maskUnits="userSpaceOnUse" x="0" y="0" width="29" height="29">
<rect width="29" height="29" fill="#D9D9D9"/>
</mask>
<g mask="url(#mask0_44_962)">
<path d="M10.1504 17.3999H12.3254V14.4999H15.9504V17.0374L19.5754 13.4124L15.9504 9.7874V12.3249H11.2306C10.9334 12.3249 10.679 12.4291 10.4676 12.6376C10.2561 12.846 10.1504 13.1043 10.1504 13.4124V17.3999ZM14.5004 26.0999C14.2257 26.0999 13.9556 26.0496 13.6902 25.9489C13.4248 25.8482 13.1813 25.6871 12.9598 25.4655L3.53477 16.0405C3.31324 15.819 3.15213 15.5755 3.05143 15.3101C2.95074 15.0447 2.90039 14.7746 2.90039 14.4999C2.90039 14.2252 2.95074 13.9551 3.05143 13.6897C3.15213 13.4243 3.31324 13.1808 3.53477 12.9593L12.9598 3.53428C13.1813 3.31275 13.4248 3.15164 13.6902 3.05094C13.9556 2.95025 14.2257 2.8999 14.5004 2.8999C14.7751 2.8999 15.0451 2.95025 15.3106 3.05094C15.576 3.15164 15.8195 3.31275 16.041 3.53428L25.466 12.9593C25.6875 13.1808 25.8487 13.4243 25.9494 13.6897C26.05 13.9551 26.1004 14.2252 26.1004 14.4999C26.1004 14.7746 26.05 15.0447 25.9494 15.3101C25.8487 15.5755 25.6875 15.819 25.466 16.0405L16.041 25.4655C15.8195 25.6871 15.576 25.8482 15.3106 25.9489C15.0451 26.0496 14.7751 26.0999 14.5004 26.0999ZM14.5004 23.9249L23.9254 14.4999L14.5004 5.0749L5.07539 14.4999L14.5004 23.9249Z" fill="white"/>
</g>
</svg>
