<svg width="21" height="21" viewBox="0 0 21 21" fill="none" xmlns="http://www.w3.org/2000/svg">
<mask id="mask0_192_740" style="mask-type:alpha" maskUnits="userSpaceOnUse" x="0" y="0" width="21" height="21">
<rect x="0.820801" y="0.666992" width="20" height="20" fill="#D9D9D9"/>
</mask>
<g mask="url(#mask0_192_740)">
<path d="M9.2168 18.667L8.75846 16.292C8.43902 16.167 8.12999 16.0212 7.83138 15.8545C7.53277 15.6878 7.25152 15.4934 6.98763 15.2712L4.69596 16.042L3.0918 13.2712L4.9043 11.6878C4.87652 11.5212 4.85569 11.3545 4.8418 11.1878C4.82791 11.0212 4.82096 10.8475 4.82096 10.667C4.82096 10.4864 4.82791 10.3128 4.8418 10.1462C4.85569 9.97949 4.87652 9.81283 4.9043 9.64616L3.0918 8.06283L4.69596 5.29199L6.98763 6.06283C7.25152 5.8406 7.53277 5.64616 7.83138 5.47949C8.12999 5.31283 8.43902 5.16699 8.75846 5.04199L9.2168 2.66699H12.4251L12.8835 5.04199C13.2029 5.16699 13.5119 5.31283 13.8105 5.47949C14.1092 5.64616 14.3904 5.8406 14.6543 6.06283L16.946 5.29199L18.5501 8.06283L16.7376 9.64616C16.7654 9.81283 16.7862 9.97949 16.8001 10.1462C16.814 10.3128 16.821 10.4864 16.821 10.667C16.821 10.8475 16.814 11.0212 16.8001 11.1878C16.7862 11.3545 16.7654 11.5212 16.7376 11.6878L18.5501 13.2712L16.946 16.042L14.6543 15.2712C14.3904 15.4934 14.1092 15.6878 13.8105 15.8545C13.5119 16.0212 13.2029 16.167 12.8835 16.292L12.4251 18.667H9.2168ZM10.821 13.667C11.6543 13.667 12.3626 13.3753 12.946 12.792C13.5293 12.2087 13.821 11.5003 13.821 10.667C13.821 9.83366 13.5293 9.12533 12.946 8.54199C12.3626 7.95866 11.6543 7.66699 10.821 7.66699C9.98763 7.66699 9.2793 7.95866 8.69596 8.54199C8.11263 9.12533 7.82096 9.83366 7.82096 10.667C7.82096 11.5003 8.11263 12.2087 8.69596 12.792C9.2793 13.3753 9.98763 13.667 10.821 13.667Z" fill="white"/>
</g>
</svg>
