<svg width="21" height="21" viewBox="0 0 21 21" fill="none" xmlns="http://www.w3.org/2000/svg">
<mask id="mask0_192_754" style="mask-type:alpha" maskUnits="userSpaceOnUse" x="0" y="0" width="21" height="21">
<rect x="0.870117" y="0.666992" width="20" height="20" fill="#D9D9D9"/>
</mask>
<g mask="url(#mask0_192_754)">
<path d="M6.70345 14.8337H12.5368V13.167H6.70345V14.8337ZM6.70345 11.5003H15.0368V9.83366H6.70345V11.5003ZM6.70345 8.16699H15.0368V6.50033H6.70345V8.16699ZM5.03678 18.167C4.57845 18.167 4.18609 18.0038 3.8597 17.6774C3.53331 17.351 3.37012 16.9587 3.37012 16.5003V4.83366C3.37012 4.37533 3.53331 3.98296 3.8597 3.65658C4.18609 3.33019 4.57845 3.16699 5.03678 3.16699H16.7035C17.1618 3.16699 17.5541 3.33019 17.8805 3.65658C18.2069 3.98296 18.3701 4.37533 18.3701 4.83366V16.5003C18.3701 16.9587 18.2069 17.351 17.8805 17.6774C17.5541 18.0038 17.1618 18.167 16.7035 18.167H5.03678ZM5.03678 16.5003H16.7035V4.83366H5.03678V16.5003Z" fill="white"/>
</g>
</svg>
