<svg width="12" height="15" viewBox="0 0 12 15" fill="none" xmlns="http://www.w3.org/2000/svg">
<path d="M4 2.00008V0.666748H8V2.00008H4ZM5.33333 9.33342H6.66667V5.33342H5.33333V9.33342ZM6 14.6667C5.17778 14.6667 4.40278 14.5084 3.675 14.1917C2.94722 13.8751 2.31111 13.4445 1.76667 12.9001C1.22222 12.3556 0.791667 11.7195 0.475 10.9917C0.158333 10.264 0 9.48897 0 8.66675C0 7.84453 0.158333 7.06953 0.475 6.34175C0.791667 5.61397 1.22222 4.97786 1.76667 4.43341C2.31111 3.88897 2.94722 3.45841 3.675 3.14175C4.40278 2.82508 5.17778 2.66675 6 2.66675C6.68889 2.66675 7.35 2.77786 7.98333 3.00008C8.61667 3.2223 9.21111 3.54453 9.76667 3.96675L10.7 3.03341L11.6333 3.96675L10.7 4.90008C11.1222 5.45564 11.4444 6.05008 11.6667 6.68342C11.8889 7.31675 12 7.97786 12 8.66675C12 9.48897 11.8417 10.264 11.525 10.9917C11.2083 11.7195 10.7778 12.3556 10.2333 12.9001C9.68889 13.4445 9.05278 13.8751 8.325 14.1917C7.59722 14.5084 6.82222 14.6667 6 14.6667ZM6 13.3334C7.28889 13.3334 8.38889 12.8779 9.3 11.9667C10.2111 11.0556 10.6667 9.95564 10.6667 8.66675C10.6667 7.37786 10.2111 6.27786 9.3 5.36675C8.38889 4.45564 7.28889 4.00008 6 4.00008C4.71111 4.00008 3.61111 4.45564 2.7 5.36675C1.78889 6.27786 1.33333 7.37786 1.33333 8.66675C1.33333 9.95564 1.78889 11.0556 2.7 11.9667C3.61111 12.8779 4.71111 13.3334 6 13.3334Z" fill="white"/>
</svg>
