<svg width="8" height="8" viewBox="0 0 8 8" fill="none" xmlns="http://www.w3.org/2000/svg">
<mask id="mask0_268_1002" style="mask-type:alpha" maskUnits="userSpaceOnUse" x="0" y="0" width="8" height="8">
<rect width="8" height="8" fill="#D9D9D9"/>
</mask>
<g mask="url(#mask0_268_1002)">
<path d="M3 0.999919V0.333252H5V0.999919H3ZM3.66667 4.66659H4.33333V2.66659H3.66667V4.66659ZM4 7.33325C3.58889 7.33325 3.20139 7.25409 2.8375 7.09575C2.47361 6.93742 2.15556 6.72214 1.88333 6.44992C1.61111 6.1777 1.39583 5.85964 1.2375 5.49575C1.07917 5.13186 1 4.74436 1 4.33325C1 3.92214 1.07917 3.53464 1.2375 3.17075C1.39583 2.80686 1.61111 2.48881 1.88333 2.21659C2.15556 1.94436 2.47361 1.72909 2.8375 1.57075C3.20139 1.41242 3.58889 1.33325 4 1.33325C4.34444 1.33325 4.675 1.38881 4.99167 1.49992C5.30833 1.61103 5.60556 1.77214 5.88333 1.98325L6.35 1.51659L6.81667 1.98325L6.35 2.44992C6.56111 2.7277 6.72222 3.02492 6.83333 3.34159C6.94444 3.65825 7 3.98881 7 4.33325C7 4.74436 6.92083 5.13186 6.7625 5.49575C6.60417 5.85964 6.38889 6.1777 6.11667 6.44992C5.84444 6.72214 5.52639 6.93742 5.1625 7.09575C4.79861 7.25409 4.41111 7.33325 4 7.33325ZM4 6.66659C4.64444 6.66659 5.19444 6.43881 5.65 5.98325C6.10556 5.5277 6.33333 4.9777 6.33333 4.33325C6.33333 3.68881 6.10556 3.13881 5.65 2.68325C5.19444 2.2277 4.64444 1.99992 4 1.99992C3.35556 1.99992 2.80556 2.2277 2.35 2.68325C1.89444 3.13881 1.66667 3.68881 1.66667 4.33325C1.66667 4.9777 1.89444 5.5277 2.35 5.98325C2.80556 6.43881 3.35556 6.66659 4 6.66659Z" fill="#FDFDFD"/>
</g>
</svg>
