<svg width="20" height="21" viewBox="0 0 20 21" fill="none" xmlns="http://www.w3.org/2000/svg">
<mask id="mask0_192_762" style="mask-type:alpha" maskUnits="userSpaceOnUse" x="0" y="0" width="20" height="21">
<rect y="0.333496" width="20" height="20" fill="#D9D9D9"/>
</mask>
<g mask="url(#mask0_192_762)">
<path d="M9.125 16.0002L6.29167 13.1668L7.35417 12.1043L9.125 13.8752L12.6458 10.3335L13.7083 11.396L9.125 16.0002ZM4.5 18.3335C4.0875 18.3335 3.73437 18.1842 3.44062 17.8856C3.14687 17.587 3 17.2363 3 16.8335V5.8335C3 5.43072 3.14687 5.08002 3.44062 4.78141C3.73437 4.4828 4.0875 4.3335 4.5 4.3335H6V2.3335H7.5V4.3335H12.5V2.3335H14V4.3335H15.5C15.9125 4.3335 16.2656 4.4828 16.5594 4.78141C16.8531 5.08002 17 5.43072 17 5.8335V16.8335C17 17.2363 16.8531 17.587 16.5594 17.8856C16.2656 18.1842 15.9125 18.3335 15.5 18.3335H4.5ZM4.5 16.8335H15.5V9.3335H4.5V16.8335ZM4.5 7.8335H15.5V5.8335H4.5V7.8335Z" fill="white"/>
</g>
</svg>
