<svg width="12" height="12" viewBox="0 0 12 12" fill="none" xmlns="http://www.w3.org/2000/svg">
<path d="M1.99926 10.6667H9.99926L9.04926 4H2.94926L1.99926 10.6667ZM5.99926 2.66667C6.18814 2.66667 6.34648 2.60278 6.47426 2.475C6.60203 2.34722 6.66592 2.18889 6.66592 2C6.66592 1.81111 6.60203 1.65278 6.47426 1.525C6.34648 1.39722 6.18814 1.33333 5.99926 1.33333C5.81037 1.33333 5.65203 1.39722 5.52426 1.525C5.39648 1.65278 5.33259 1.81111 5.33259 2C5.33259 2.18889 5.39648 2.34722 5.52426 2.475C5.65203 2.60278 5.81037 2.66667 5.99926 2.66667ZM7.88259 2.66667H9.04926C9.38259 2.66667 9.67148 2.77778 9.91592 3C10.1604 3.22222 10.3104 3.49444 10.3659 3.81667L11.3159 10.4833C11.3715 10.8833 11.2687 11.2361 11.0076 11.5417C10.7465 11.8472 10.4104 12 9.99926 12H1.99926C1.58814 12 1.25203 11.8472 0.990922 11.5417C0.729811 11.2361 0.627033 10.8833 0.682589 10.4833L1.63259 3.81667C1.68814 3.49444 1.83814 3.22222 2.08259 3C2.32703 2.77778 2.61592 2.66667 2.94926 2.66667H4.11592C4.08259 2.55556 4.05481 2.44722 4.03259 2.34167C4.01037 2.23611 3.99926 2.12222 3.99926 2C3.99926 1.44444 4.1937 0.972222 4.58259 0.583333C4.97148 0.194444 5.4437 0 5.99926 0C6.55481 0 7.02703 0.194444 7.41592 0.583333C7.80481 0.972222 7.99926 1.44444 7.99926 2C7.99926 2.12222 7.98814 2.23611 7.96592 2.34167C7.9437 2.44722 7.91592 2.55556 7.88259 2.66667Z" fill="#85C933"/>
</svg>
